name rise31.4854peak64.571fall78.6902.mot
datacolumns 19
datarows 21
range 5.58498000000000 5.61831800000000
endheader
time	ground_force1_vx	ground_force1_vy	ground_force1_vz	ground_force1_px	ground_force1_py	ground_force1_pz	ground_force2_vx	ground_force2_vy	ground_force2_vz	ground_force2_px	ground_force2_py	ground_force2_pz	ground_torque1_x	ground_torque1_y	ground_torque1_z	ground_torque2_x	ground_torque2_y	ground_torque2_z	
5.58498000000000	-50.27265100000000	818.11154199999999	49.60648700000000	0.11170400000000	0.00000000000000	0.08515800000000	0.00000000000000	0.00000000000000	0.00000000000000	0.00000000000000	0.00000000000000	0.00000000000000	0.00000000000000	19.03766900000000	0.00000000000000	0.00000000000000	0.00000000000000	0.00000000000000	
5.58664600000000	-50.40718100000000	815.83192699999995	49.45994900000000	0.11111000000000	0.00000000000000	0.08515100000000	0.00000000000000	0.00000000000000	0.00000000000000	0.00000000000000	0.00000000000000	0.00000000000000	0.00000000000000	18.93473200000000	0.00000000000000	0.00000000000000	0.00000000000000	0.00000000000000	
5.58831800000000	-50.55140200000000	813.44277599999998	49.29224200000000	0.11051300000000	0.00000000000000	0.08514200000000	0.00000000000000	0.00000000000000	0.00000000000000	0.00000000000000	0.00000000000000	0.00000000000000	0.00000000000000	18.83117800000000	0.00000000000000	0.00000000000000	0.00000000000000	0.00000000000000	
5.58997600000000	-50.70614700000000	810.94524100000001	49.10319800000000	0.10991400000000	0.00000000000000	0.08512900000000	0.00000000000000	0.00000000000000	0.00000000000000	0.00000000000000	0.00000000000000	0.00000000000000	0.00000000000000	18.72718100000000	0.00000000000000	0.00000000000000	0.00000000000000	0.00000000000000	
5.59165100000000	-50.87221200000000	808.34046599999999	48.89268700000000	0.10931200000000	0.00000000000000	0.08511400000000	0.00000000000000	0.00000000000000	0.00000000000000	0.00000000000000	0.00000000000000	0.00000000000000	0.00000000000000	18.62291200000000	0.00000000000000	0.00000000000000	0.00000000000000	0.00000000000000	
5.59331400000000	-51.05035400000000	805.62957200000005	48.66061200000000	0.10870800000000	0.00000000000000	0.08509500000000	0.00000000000000	0.00000000000000	0.00000000000000	0.00000000000000	0.00000000000000	0.00000000000000	0.00000000000000	18.51853900000000	0.00000000000000	0.00000000000000	0.00000000000000	0.00000000000000	
5.59497700000000	-51.24128000000000	802.81364499999995	48.40691200000000	0.10810000000000	0.00000000000000	0.08507300000000	0.00000000000000	0.00000000000000	0.00000000000000	0.00000000000000	0.00000000000000	0.00000000000000	0.00000000000000	18.41422400000000	0.00000000000000	0.00000000000000	0.00000000000000	0.00000000000000	
5.59665200000000	-51.44564900000000	799.89372300000002	48.13156200000000	0.10748900000000	0.00000000000000	0.08504800000000	0.00000000000000	0.00000000000000	0.00000000000000	0.00000000000000	0.00000000000000	0.00000000000000	0.00000000000000	18.31012900000000	0.00000000000000	0.00000000000000	0.00000000000000	0.00000000000000	
5.59831100000000	-51.66406600000000	796.87078499999996	47.83457100000000	0.10687500000000	0.00000000000000	0.08501900000000	-1.68571300000000	3.53046500000000	0.75896000000000	0.00000000000000	0.00000000000000	0.00000000000000	0.00000000000000	18.20640400000000	0.00000000000000	0.00000000000000	0.16344200000000	0.00000000000000	
5.59997700000000	-51.89707400000000	793.74573799999996	47.51598600000000	0.10625700000000	0.00000000000000	0.08498700000000	-2.69862300000000	7.00155900000000	1.30721700000000	0.00000000000000	0.00000000000000	0.00000000000000	0.00000000000000	18.10319900000000	0.00000000000000	0.00000000000000	0.30072500000000	0.00000000000000	
5.60164700000000	-52.14515400000000	790.51940800000000	47.17588500000000	0.10563600000000	0.00000000000000	0.08495100000000	-3.84456600000000	11.22406300000000	1.94683400000000	0.00000000000000	0.00000000000000	0.00000000000000	0.00000000000000	18.00065300000000	0.00000000000000	0.00000000000000	0.46428000000000	0.00000000000000	
5.60331400000000	-52.40871700000000	787.19252700000004	46.81438200000000	0.10501200000000	0.00000000000000	0.08491200000000	-5.08886600000000	16.16151900000000	2.66418200000000	0.00000000000000	0.00000000000000	0.00000000000000	0.00000000000000	17.89890000000000	0.00000000000000	0.00000000000000	0.65161300000000	0.00000000000000	
5.60498500000000	-52.68810600000000	783.76572799999997	46.43162500000000	0.10438400000000	0.00000000000000	0.08486800000000	-6.38816200000000	21.74540900000000	3.44065500000000	0.00000000000000	0.00000000000000	0.00000000000000	0.00000000000000	17.79806300000000	0.00000000000000	0.00000000000000	0.85893900000000	0.00000000000000	
5.60664300000000	-52.98358500000000	780.23953400000005	46.02779400000000	0.10375300000000	0.00000000000000	0.08482100000000	-7.69323300000000	27.88049800000000	4.25389900000000	0.34303800000000	0.00000000000000	-0.07597400000000	0.00000000000000	17.69825800000000	0.00000000000000	0.00000000000000	1.95621000000000	0.00000000000000	
5.60831700000000	-53.29534000000000	776.61435200000005	45.60310300000000	0.10311900000000	0.00000000000000	0.08477000000000	-8.95258100000000	34.45304300000000	5.07947400000000	0.34691100000000	0.00000000000000	-0.07689700000000	0.00000000000000	17.59959200000000	0.00000000000000	0.00000000000000	2.38735600000000	0.00000000000000	
5.60997600000000	-53.62347400000000	772.89046699999994	45.15779700000000	0.10248200000000	0.00000000000000	0.08471400000000	-10.11629200000000	41.34077100000000	5.89272600000000	0.35034100000000	0.00000000000000	-0.07772700000000	0.00000000000000	17.50215700000000	0.00000000000000	0.00000000000000	2.82801900000000	0.00000000000000	
5.61164400000000	-53.96800300000000	769.06803500000001	44.69215300000000	0.10184300000000	0.00000000000000	0.08465500000000	-11.13966000000000	48.42321200000000	6.67061400000000	0.35340500000000	0.00000000000000	-0.07847900000000	0.00000000000000	17.40604000000000	0.00000000000000	0.00000000000000	3.26775800000000	0.00000000000000	
5.61331300000000	-54.32885700000000	765.14708099999996	44.20647800000000	0.10120200000000	0.00000000000000	0.08459100000000	-11.98610600000000	55.59098200000000	7.39325600000000	0.35616400000000	0.00000000000000	-0.07916500000000	0.00000000000000	17.31130900000000	0.00000000000000	0.00000000000000	3.69714400000000	0.00000000000000	
5.61498000000000	-54.70587100000000	761.12749399999996	43.70110800000000	0.10055800000000	0.00000000000000	0.08452300000000	-12.62912000000000	62.75304200000000	8.04504100000000	0.35866500000000	0.00000000000000	-0.07979500000000	0.00000000000000	17.21802500000000	0.00000000000000	0.00000000000000	4.10832400000000	0.00000000000000	
5.61664400000000	-55.09878800000000	757.00902599999995	43.17641000000000	0.09991300000000	0.00000000000000	0.08445100000000	-13.05311100000000	69.84140800000000	8.61523600000000	0.36094900000000	0.00000000000000	-0.08037800000000	0.00000000000000	17.12623300000000	0.00000000000000	0.00000000000000	4.49536900000000	0.00000000000000	
5.61831800000000	-55.50725300000000	752.79129100000000	42.63277700000000	0.09926800000000	0.00000000000000	0.08437400000000	-13.25324400000000	76.81322200000000	9.09809600000000	0.36304700000000	0.00000000000000	-0.08091900000000	0.00000000000000	17.03596400000000	0.00000000000000	0.00000000000000	4.85441200000000	0.00000000000000	
